<mxfile host="app.diagrams.net" agent="Mozilla/5.0 (Macintosh; Intel Mac OS X 10_15_7) AppleWebKit/605.1.15 (KHTML, like Gecko) Version/16.6 Safari/605.1.15" version="24.8.8">
  <diagram name="Page-1" id="2YBvvXClWsGukQMizWep">
    <mxGraphModel dx="708" dy="477" grid="1" gridSize="10" guides="1" tooltips="1" connect="1" arrows="1" fold="1" page="1" pageScale="1" pageWidth="850" pageHeight="1100" math="0" shadow="0">
      <root>
        <mxCell id="0" />
        <mxCell id="1" parent="0" />
        <mxCell id="aM9ryv3xv72pqoxQDRHE-7" value="LogOut(profile)" style="html=1;verticalAlign=bottom;endArrow=block;edgeStyle=elbowEdgeStyle;elbow=vertical;curved=0;rounded=0;" parent="1" edge="1">
          <mxGeometry x="0.0023" relative="1" as="geometry">
            <mxPoint x="209.81034482758616" y="439.9999999999999" as="sourcePoint" />
            <Array as="points">
              <mxPoint x="400" y="440" />
              <mxPoint x="365" y="410" />
            </Array>
            <mxPoint x="509.5" y="439.9999999999999" as="targetPoint" />
            <mxPoint as="offset" />
          </mxGeometry>
        </mxCell>
        <mxCell id="1ZKG4CmkqfWAM7Gi57S6-6" value="&lt;b&gt;SD&lt;/b&gt; User Logout" style="shape=umlFrame;whiteSpace=wrap;html=1;pointerEvents=0;width=100;height=30;" vertex="1" parent="1">
          <mxGeometry x="160" y="320" width="430" height="240" as="geometry" />
        </mxCell>
        <mxCell id="1ZKG4CmkqfWAM7Gi57S6-11" value="S&amp;amp;C" style="shape=umlLifeline;perimeter=lifelinePerimeter;whiteSpace=wrap;html=1;container=1;dropTarget=0;collapsible=0;recursiveResize=0;outlineConnect=0;portConstraint=eastwest;newEdgeStyle={&quot;curved&quot;:0,&quot;rounded&quot;:0};" vertex="1" parent="1">
          <mxGeometry x="460" y="380" width="100" height="140" as="geometry" />
        </mxCell>
        <mxCell id="1ZKG4CmkqfWAM7Gi57S6-28" value="" style="html=1;points=[[0,0,0,0,5],[0,1,0,0,-5],[1,0,0,0,5],[1,1,0,0,-5]];perimeter=orthogonalPerimeter;outlineConnect=0;targetShapes=umlLifeline;portConstraint=eastwest;newEdgeStyle={&quot;curved&quot;:0,&quot;rounded&quot;:0};" vertex="1" parent="1ZKG4CmkqfWAM7Gi57S6-11">
          <mxGeometry x="45" y="60" width="10" height="80" as="geometry" />
        </mxCell>
        <mxCell id="1ZKG4CmkqfWAM7Gi57S6-13" value="" style="shape=umlLifeline;perimeter=lifelinePerimeter;whiteSpace=wrap;html=1;container=1;dropTarget=0;collapsible=0;recursiveResize=0;outlineConnect=0;portConstraint=eastwest;newEdgeStyle={&quot;curved&quot;:0,&quot;rounded&quot;:0};participant=umlActor;size=40;" vertex="1" parent="1">
          <mxGeometry x="200" y="380" width="20" height="140" as="geometry" />
        </mxCell>
        <mxCell id="1ZKG4CmkqfWAM7Gi57S6-14" value="User" style="text;html=1;align=center;verticalAlign=middle;resizable=0;points=[];autosize=1;strokeColor=none;fillColor=none;" vertex="1" parent="1">
          <mxGeometry x="225" y="390" width="50" height="30" as="geometry" />
        </mxCell>
        <mxCell id="1ZKG4CmkqfWAM7Gi57S6-16" value="redirectLoginPage()" style="html=1;verticalAlign=bottom;endArrow=open;dashed=1;endSize=8;curved=0;rounded=0;" edge="1" parent="1">
          <mxGeometry x="-0.0023" relative="1" as="geometry">
            <mxPoint x="509.5" y="519.9999999999999" as="sourcePoint" />
            <mxPoint x="209.81034482758616" y="519.9999999999999" as="targetPoint" />
            <Array as="points">
              <mxPoint x="450" y="520" />
              <mxPoint x="390" y="520" />
            </Array>
            <mxPoint as="offset" />
          </mxGeometry>
        </mxCell>
      </root>
    </mxGraphModel>
  </diagram>
</mxfile>
